<svg width="24" height="20" viewBox="0 0 24 20" fill="none" xmlns="http://www.w3.org/2000/svg">
<path d="M24 2.557C23.1014 2.95527 22.1481 3.21651 21.172 3.332C22.2006 2.71718 22.9702 1.74887 23.337 0.607998C22.3704 1.18158 21.3128 1.58573 20.21 1.803C19.7494 1.31139 19.1928 0.919687 18.5745 0.652192C17.9563 0.384696 17.2896 0.247119 16.616 0.247998C13.437 0.247998 11.101 3.214 11.819 6.293C9.86138 6.19501 7.94625 5.6864 6.19796 4.80019C4.44967 3.91399 2.9073 2.67 1.671 1.149C1.04148 2.23304 0.848566 3.51618 1.13149 4.7374C1.41441 5.95863 2.15192 7.02621 3.194 7.723C2.41251 7.69833 1.64826 7.48712 0.965 7.107C0.911 9.388 2.546 11.522 4.914 11.997C4.18873 12.194 3.42806 12.2227 2.69 12.081C3.00451 13.0594 3.61703 13.915 4.44184 14.528C5.26665 15.1411 6.26249 15.4809 7.29 15.5C5.2262 17.1189 2.6043 17.8526 0 17.54C2.25151 18.9866 4.87183 19.7545 7.548 19.752C16.69 19.752 21.855 12.031 21.543 5.106C22.5067 4.40882 23.3387 3.5457 24 2.557Z" fill="#2BD0D0"/>
</svg>
